<svg style="display: none;" width="0" height="0" version="1.1" xmlns="http://www.w3.org/2000/svg" xmlns:xlink="http://www.w3.org/1999/xlink">
  <symbol id="hamburger" viewBox="0 0 45 23">
    <rect y="20" width="35" height="3" rx="1.5"/>
    <rect y="10" width="45" height="3" rx="1.5"/>
    <rect width="26" height="3" rx="1.5"/>
  </symbol>
  <symbol id="tel" viewBox="0 0 15 15">
    <path d="M14.7915 12.4732L12.6766 14.571C12.3644 14.8912 11.9507 14.9996 11.5477 15.0001C9.76553 14.9467 8.08101 14.0713 6.69791 13.1724C4.42763 11.5208 2.34456 9.47289 1.03718 6.99804C0.535755 5.96025 -0.0525948 4.63611 0.00361768 3.47775C0.00863018 3.042 0.126055 2.61434 0.432943 2.33346L2.54777 0.219698C2.98692 -0.153839 3.41161 -0.0246894 3.69263 0.410411L5.39402 3.63669C5.57309 4.0189 5.47037 4.42842 5.20319 4.70154L4.42404 5.48029C4.37594 5.54617 4.34532 5.62117 4.34454 5.7028C4.64332 6.85932 5.54846 7.92529 6.34806 8.65887C7.14764 9.39247 8.00712 10.3863 9.12277 10.6216C9.26067 10.6601 9.42958 10.6736 9.52824 10.5819L10.4346 9.66011C10.7471 9.4233 11.1982 9.30755 11.5318 9.50119H11.5477L14.6165 11.313C15.067 11.5954 15.114 12.1411 14.7915 12.4732Z"/>
  </symbol>
  <symbol id="arrow-prev-bold" viewBox="0 0 12 18">
    <path d="M11 1L2 9L11 17" stroke-width="2"/>
  </symbol>
  <symbol id="arrow-next-bold" viewBox="0 0 12 18">
    <path d="M1 17L10 9L1 1" stroke-width="2"/>
  </symbol>
  <symbol id="mouse" viewBox="0 0 25 45">
    <rect x="0.5" y="0.5" width="24" height="44" rx="12" stroke="white"/>
    <rect x="12" y="10" width="1" height="6" fill="white"/>
  </symbol>
  <symbol id="waves" viewBox="0 0 25 21">
    <path d="M24.047 13.041V10.4609C22.8773 10.4609 22.3612 10.018 21.6472 9.405C20.8561 8.72592 19.8715 7.88086 18.0355 7.88086C16.1995 7.88086 15.2149 8.72592 14.4239 9.405C13.7096 10.018 13.1937 10.4609 12.0239 10.4609C10.854 10.4609 10.338 10.018 9.62374 9.405C8.83265 8.72592 7.84806 7.88086 6.01191 7.88086C4.17584 7.88086 3.19125 8.72592 2.40016 9.405C1.68592 10.018 1.16989 10.4609 3.05176e-05 10.4609V13.041C1.83618 13.041 2.8207 12.196 3.61186 11.5169C4.32609 10.9039 4.84212 10.4609 6.01191 10.4609C7.18171 10.4609 7.6978 10.9039 8.41204 11.5169C9.2032 12.196 10.1878 13.041 12.0239 13.041C13.8599 13.041 14.8445 12.196 15.6355 11.5169C16.3497 10.9039 16.8657 10.4609 18.0355 10.4609C19.2053 10.4609 19.7213 10.9039 20.4354 11.5169C21.2265 12.196 22.211 13.041 24.047 13.041Z"/>
    <path d="M24.047 5.30078V2.72058C22.8773 2.72058 22.3612 2.27765 21.6472 1.66459C20.8561 0.985482 19.8715 0.140381 18.0355 0.140381C16.1995 0.140381 15.2149 0.985482 14.4239 1.66459C13.7096 2.27765 13.1937 2.72058 12.0239 2.72058C10.854 2.72058 10.338 2.27765 9.62374 1.66459C8.83265 0.985482 7.84806 0.140381 6.01191 0.140381C4.17584 0.140381 3.19125 0.985482 2.40016 1.66459C1.68592 2.27765 1.16989 2.72058 3.05176e-05 2.72058V5.30078C1.83618 5.30078 2.8207 4.45568 3.61186 3.77657C4.32609 3.16352 4.84212 2.72058 6.01191 2.72058C7.18171 2.72058 7.6978 3.16352 8.41204 3.77657C9.2032 4.45568 10.1878 5.30078 12.0239 5.30078C13.8599 5.30078 14.8445 4.45568 15.6355 3.77657C16.3497 3.16352 16.8657 2.72058 18.0355 2.72058C19.2053 2.72058 19.7213 3.16352 20.4354 3.77657C21.2265 4.45568 22.211 5.30078 24.047 5.30078Z"/>
    <path d="M24.047 20.7812V18.2012C22.8773 18.2012 22.3612 17.7583 21.6472 17.1452C20.8561 16.4662 19.8715 15.6211 18.0355 15.6211C16.1995 15.6211 15.2149 16.4662 14.4239 17.1452C13.7096 17.7583 13.1937 18.2012 12.0239 18.2012C10.854 18.2012 10.338 17.7583 9.62374 17.1452C8.83265 16.4662 7.84806 15.6211 6.01191 15.6211C4.17584 15.6211 3.19125 16.4662 2.40016 17.1452C1.68592 17.7583 1.16989 18.2012 3.05176e-05 18.2012V20.7812C1.83618 20.7812 2.8207 19.9362 3.61186 19.2571C4.32609 18.6441 4.84212 18.2012 6.01191 18.2012C7.18171 18.2012 7.6978 18.6441 8.41204 19.2571C9.2032 19.9362 10.1878 20.7812 12.0239 20.7812C13.8599 20.7812 14.8445 19.9362 15.6355 19.2571C16.3497 18.6441 16.8657 18.2012 18.0355 18.2012C19.2053 18.2012 19.7213 18.6441 20.4354 19.2571C21.2265 19.9362 22.211 20.7812 24.047 20.7812Z"/>
  </symbol>
  <symbol id="post-title" viewBox="0 0 88 30">
    <path opacity="0.7" d="M21.1 6.16165L26.7 2.38515L32.3 6.16165C39.8 11.1307 49.4 11.1307 56.9 6.16165L62.5 2.38515L68.1 6.16165C71.8 8.64618 76.1 9.93814 80.4 9.93814C82.1 9.93814 83.8 9.73938 85.4 9.34185C86.1 8.44742 86.8 7.55299 87.4 6.65855C81.4 8.84495 74.7 8.14928 69.3 4.57154L62.5 0L55.8 4.47216C49 8.94433 40.3 8.94433 33.5 4.47216L26.8 0L20 4.47216C14 8.5468 6.4 8.94433 0 5.76412C0.7 6.75794 1.4 7.75175 2.2 8.74556C8.5 10.8326 15.4 9.93814 21.1 6.16165Z"/>
    <path opacity="0.7" d="M21.1 16.0999L26.7 12.3234L32.3 16.0999C39.8 21.069 49.4 21.069 56.9 16.0999L62.5 12.3234L68.1 16.0999C71.8 18.5844 76.1 19.8764 80.4 19.8764C82.1 19.8764 83.8 19.6776 85.4 19.2801C86.1 18.3857 86.8 17.4912 87.4 16.5968C81.4 18.7832 74.7 18.0875 69.3 14.5098L62.5 9.93823L55.8 14.4104C49 18.8826 40.3 18.8826 33.5 14.4104L26.8 9.93823L20 14.4104C14 18.4851 6.4 18.8826 0 15.7024C0.7 16.6962 1.4 17.69 2.2 18.6838C8.5 20.7708 15.4 19.8764 21.1 16.0999Z"/>
    <path opacity="0.7" d="M21.1 26.0381L26.7 22.2616L32.3 26.0381C39.8 31.0072 49.4 31.0072 56.9 26.0381L62.5 22.2616L68.1 26.0381C71.8 28.5226 76.1 29.8146 80.4 29.8146C82.1 29.8146 83.8 29.6158 85.4 29.2183C86.1 28.3239 86.8 27.4295 87.4 26.535C81.4 28.7214 74.7 28.0257 69.3 24.448L62.5 19.8765L55.8 24.3486C49 28.8208 40.3 28.8208 33.5 24.3486L26.8 19.8765L20 24.3486C14 28.4233 6.4 28.8208 0 25.6406C0.7 26.6344 1.4 27.6282 2.2 28.622C8.5 30.709 15.4 29.8146 21.1 26.0381Z"/>
  </symbol>
  <symbol id="post-arrow" viewBox="0 0 20 20">
    <path d="M14.5148 5.51489L13.6239 6.4058L17.5882 10.3702H0V11.6301H17.5882L13.6239 15.5944L14.5148 16.4853L20 11.0001L14.5148 5.51489Z"/>
  </symbol>
  <symbol id="helmet" viewBox="0 0 40 40">
    <path d="M31.7241 28.2756H8.2759C7.86209 28.2756 7.58624 28.5515 7.58624 28.9653C7.58624 29.3791 7.86209 29.655 8.2759 29.655H31.7242C32.138 29.655 32.4138 29.3791 32.4138 28.9653C32.4138 28.5515 32.1379 28.2756 31.7241 28.2756Z"/>
    <path d="M39.3103 28.2758H37.931C37.5172 28.2758 37.2414 27.9309 37.2414 27.5861V25.1723C37.2414 21.7436 36.2367 18.4587 34.4898 15.6703C34.4874 15.6652 34.4853 15.6601 34.4827 15.6551C34.4624 15.6236 34.4411 15.5927 34.4206 15.5613C32.3376 12.2881 29.227 9.71206 25.5172 8.41365V8.20678C25.5172 7.10331 24.6207 6.20679 23.5172 6.20679H16.5517C15.3793 6.20679 14.4827 7.10331 14.4827 8.20678V8.48263C7.58624 10.8274 2.75863 17.4482 2.75863 24.8275V27.5861C2.75863 27.9999 2.4138 28.2758 2.06897 28.2758H0.689658C0.275847 28.2758 0 28.5516 0 28.9654V33.1034C0 33.5172 0.275847 33.793 0.689658 33.793H39.3103C39.7242 33.793 40 33.5172 40 33.1034V28.9654C40 28.5516 39.7242 28.2758 39.3103 28.2758ZM30.9957 13.5288C31.3269 13.8624 31.6458 14.2088 31.9513 14.5643C32.2505 14.9182 32.5345 15.2851 32.8033 15.6633L27.3103 17.5172L29.1633 11.9583C29.8134 12.4352 30.4254 12.9611 30.9957 13.5288ZM10.8276 11.9999L12.6896 17.5861L7.17235 15.724C8.20691 14.2757 9.44827 12.9654 10.8276 11.9999ZM38.6207 32.4136H1.37932V29.655H2.06897C3.24142 29.655 4.13795 28.6895 4.13795 27.586V24.8274C4.13795 21.9472 4.92861 19.1972 6.32335 16.8202L13.5862 19.2411C13.6552 19.3101 13.7242 19.3101 13.7931 19.3101C13.9999 19.3101 14.1379 19.2411 14.3448 19.1033C14.4827 18.9653 14.5516 18.6895 14.4827 18.4136L12.12 11.0627C12.8691 10.6322 13.6585 10.2608 14.4827 9.95604V12.4136C14.4827 12.8274 14.7586 13.1033 15.1724 13.1033C15.5862 13.1033 15.8621 12.8274 15.8621 12.4136V8.96534V8.2067C15.8621 7.86187 16.1379 7.58602 16.5517 7.58602H19.3103V15.8619C19.3103 16.2757 19.5862 16.5516 20 16.5516C20.4138 16.5516 20.6897 16.2067 20.6897 15.8619V7.5861H23.5173C23.8621 7.5861 24.1379 7.86195 24.1379 8.20678V8.96542V12.4137C24.1379 12.8275 24.4138 13.1034 24.8276 13.1034C25.2414 13.1034 25.5173 12.8275 25.5173 12.4137V9.96645C26.3781 10.2955 27.2007 10.7 27.9793 11.1697L25.5862 18.4137C25.4482 18.6206 25.5172 18.8965 25.7241 19.1033C25.8621 19.2413 26 19.3102 26.2069 19.3102C26.2759 19.3102 26.3449 19.3102 26.4138 19.3102L33.589 16.8757C35.0386 19.3439 35.8621 22.2028 35.8621 25.1722V27.586C35.8621 28.7585 36.8276 29.655 37.931 29.655H38.6207V32.4136Z"/>
  </symbol>
  <symbol id="stopwatch" viewBox="0 0 40 40">
    <path d="M34.786 28.2861L31.0553 33.6461L28.4227 31.4854C28.1387 31.2514 27.718 31.2941 27.4847 31.5774C27.2507 31.8621 27.292 32.2827 27.5773 32.5154L30.768 35.1347C30.888 35.2334 31.0373 35.2867 31.1907 35.2867C31.2207 35.2867 31.2513 35.2847 31.282 35.2801C31.466 35.2547 31.6313 35.1534 31.738 35.0007L35.8807 29.0481C36.0907 28.7461 36.0167 28.3307 35.714 28.1201C35.4113 27.9074 34.9967 27.9834 34.786 28.2861Z"/>
    <path d="M20.6667 17.3474V10.5861C20.6667 10.2174 20.368 9.91943 20 9.91943C19.632 9.91943 19.3333 10.2174 19.3333 10.5861V17.3474C18.3733 17.5968 17.622 18.3614 17.4027 19.3334H12.6667C12.2987 19.3334 12 19.6314 12 20.0001C12 20.3688 12.2987 20.6668 12.6667 20.6668H17.4533C17.7787 21.7721 18.7907 22.5861 20 22.5861C21.4707 22.5861 22.6667 21.3901 22.6667 19.9194C22.6667 18.6801 21.8133 17.6454 20.6667 17.3474ZM20 21.2528C19.2647 21.2528 18.6667 20.6548 18.6667 19.9194C18.6667 19.1841 19.2647 18.5861 20 18.5861C20.7353 18.5861 21.3333 19.1841 21.3333 19.9194C21.3333 20.6548 20.7353 21.2528 20 21.2528Z"/>
    <path d="M40 20C40 8.972 31.028 0 20 0C8.972 0 0 8.972 0 20C0 31.028 8.972 40 20 40C22.3667 40 24.6853 39.582 26.9 38.7667C28.1993 39.544 29.712 40 31.3333 40C36.112 40 40 36.112 40 31.3333C40 29.712 39.5447 28.1993 38.7667 26.9C39.582 24.6853 40 22.3667 40 20ZM25.5833 37.8127C23.778 38.3793 21.9053 38.6667 20 38.6667C9.70733 38.6667 1.33333 30.2927 1.33333 20C1.33333 9.70733 9.70733 1.33333 20 1.33333C30.2927 1.33333 38.6667 9.70733 38.6667 20C38.6667 21.9047 38.38 23.778 37.8127 25.5833C37.7607 25.5247 37.7013 25.4733 37.648 25.416C37.5387 25.2993 37.4273 25.1847 37.3113 25.074C37.2067 24.974 37.1 24.878 36.9913 24.7833C36.8853 24.6913 36.7773 24.6027 36.6667 24.5167C36.5447 24.4213 36.422 24.328 36.2953 24.2387C36.1867 24.1627 36.0753 24.0913 35.9627 24.02C35.83 23.936 35.6973 23.852 35.56 23.7753C35.4413 23.7087 35.3193 23.6487 35.1973 23.588C35.0613 23.52 34.926 23.4507 34.7867 23.39C34.65 23.33 34.5087 23.2793 34.368 23.2267C34.2367 23.1773 34.1073 23.1247 33.974 23.082C33.812 23.03 33.6447 22.9893 33.4787 22.9467C33.36 22.9167 33.244 22.8807 33.124 22.8553C32.9267 22.8133 32.7247 22.786 32.5227 22.758C32.4287 22.7447 32.336 22.7253 32.2413 22.7153C31.9433 22.684 31.6407 22.6667 31.3333 22.6667C26.5547 22.6667 22.6667 26.5547 22.6667 31.3333C22.6667 31.64 22.684 31.9433 22.7153 32.242C22.7253 32.338 22.7453 32.4313 22.7587 32.526C22.7867 32.7267 22.814 32.928 22.8553 33.124C22.8807 33.2453 22.9173 33.3627 22.948 33.4827C22.99 33.6473 23.03 33.8127 23.082 33.9733C23.1253 34.1087 23.1787 34.2393 23.228 34.372C23.28 34.5107 23.33 34.65 23.3893 34.7853C23.4507 34.926 23.5207 35.0633 23.59 35.2007C23.65 35.3213 23.7093 35.4413 23.7747 35.5587C23.8527 35.6973 23.9373 35.832 24.0227 35.966C24.0927 36.076 24.1627 36.186 24.238 36.2927C24.328 36.4213 24.4227 36.5453 24.52 36.6693C24.6053 36.778 24.692 36.884 24.782 36.988C24.878 37.0987 24.976 37.2073 25.0773 37.3133C25.186 37.4267 25.2987 37.536 25.4133 37.644C25.4707 37.6987 25.5227 37.7593 25.5833 37.8127ZM31.3333 38.6667C29.8493 38.6667 28.4693 38.2207 27.314 37.46C27.07 37.3 26.8387 37.1267 26.618 36.942C26.578 36.908 26.5407 36.8707 26.5013 36.836C26.3353 36.6907 26.1767 36.538 26.0253 36.3793C25.9587 36.3093 25.894 36.238 25.8307 36.1647C25.7107 36.028 25.5967 35.8867 25.4873 35.7427C25.428 35.664 25.3667 35.5873 25.3107 35.5067C25.174 35.3107 25.0473 35.108 24.9313 34.9C24.9013 34.8453 24.872 34.7907 24.8427 34.736C24.732 34.526 24.6313 34.3107 24.542 34.09C24.5073 34.004 24.478 33.9153 24.446 33.828C24.3827 33.6527 24.324 33.4747 24.274 33.2947C24.248 33.2007 24.2233 33.1067 24.2013 33.0113C24.1567 32.822 24.1213 32.63 24.092 32.436C24.0793 32.3513 24.0627 32.2667 24.0527 32.1807C24.0207 31.9013 24 31.6187 24 31.3333C24 27.29 27.29 24 31.3333 24C31.6187 24 31.9013 24.0207 32.1807 24.0533C32.2667 24.0633 32.3507 24.0793 32.436 24.0927C32.6293 24.122 32.8213 24.1573 33.0107 24.202C33.106 24.2247 33.2007 24.2487 33.2947 24.2753C33.4747 24.3253 33.652 24.3833 33.8273 24.4467C33.9153 24.4787 34.004 24.508 34.09 24.5433C34.3093 24.6327 34.524 24.7327 34.7333 24.8427C34.79 24.872 34.846 24.902 34.9013 24.9333C35.1087 25.0493 35.3107 25.1753 35.506 25.3113C35.5873 25.3673 35.664 25.4287 35.7427 25.4887C35.8873 25.598 36.0287 25.7113 36.1647 25.832C36.2373 25.896 36.3093 25.9607 36.3793 26.0267C36.538 26.178 36.69 26.3367 36.836 26.5027C36.8707 26.5427 36.908 26.5793 36.942 26.6193C37.1267 26.8393 37.2993 27.0707 37.4593 27.314C38.2207 28.4693 38.6667 29.8493 38.6667 31.3333C38.6667 35.3767 35.3767 38.6667 31.3333 38.6667Z"/>
  </symbol>
  <symbol id="star" viewBox="0 0 40 40">
    <g clip-path="url(#clip0)">
    <path d="M39.9331 14.3893C39.7651 13.8558 39.265 13.4949 38.7026 13.5011H25.3537L21.2271 0.88405C21.0525 0.356507 20.557 0 19.9981 0C19.4395 0 18.9441 0.356507 18.7694 0.88405L14.6428 13.5011H1.294C0.733808 13.5008 0.237091 13.8592 0.0634132 14.3887C-0.109948 14.9181 0.0792021 15.4983 0.532343 15.826L11.3322 23.6246L7.20819 36.2417C7.03546 36.7714 7.22493 37.3511 7.67807 37.6784C8.13121 38.0057 8.74476 38.0057 9.19822 37.679L19.9981 29.8807L30.7983 37.679C31.2496 38.0132 31.8682 38.0132 32.3194 37.679C32.7779 37.3558 32.9687 36.7717 32.789 36.2423L28.6643 23.6246L39.4642 15.826C39.9221 15.5021 40.1128 14.9187 39.9331 14.3893ZM27.5228 22.8598C27.2964 23.0233 27.2016 23.3133 27.2878 23.5778L31.5581 36.639L20.3786 28.5664C20.1519 28.4026 19.8447 28.4026 19.6179 28.5664L8.43814 36.639L12.7065 23.5778C12.7927 23.3133 12.698 23.0233 12.4719 22.8598L1.294 14.7866H15.113C15.3931 14.7866 15.6413 14.6074 15.7279 14.3425L19.9981 1.27351V1.28041L24.2665 14.3425C24.353 14.6074 24.6015 14.7866 24.8816 14.7866H38.7026L27.5228 22.8598Z" fill="white"/>
    </g>
    <defs>
    <clipPath id="clip0">
    <rect width="40" height="39.7529" fill="white"/>
    </clipPath>
    </defs>
  </symbol>
  <symbol id="diamond" viewBox="0 0 40 40">
    <g clip-path="url(#clip0)">
    <path d="M39.1396 11.0371L32.9885 4.45371C32.3799 3.8025 31.5181 3.42896 30.6239 3.42896H9.37627C8.48206 3.42896 7.62012 3.8025 7.01159 4.45371L0.860529 11.0371C-0.243795 12.219 -0.290606 14.0425 0.751632 15.2788L17.5266 35.1768C18.1413 35.906 19.0429 36.3242 20.0001 36.3242C20.9573 36.3242 21.8588 35.906 22.4735 35.1768L39.2485 15.2787C40.2907 14.0425 40.2439 12.219 39.1396 11.0371ZM38.2417 11.8658C38.424 12.061 38.5584 12.2848 38.6475 12.522H29.4005L32.0027 5.19472C32.0327 5.22305 32.0621 5.25204 32.0905 5.2824L38.2417 11.8658ZM30.8912 4.66545L28.2834 12.0085L21.4051 4.64686H30.6238C30.7137 4.64678 30.803 4.65352 30.8912 4.66545ZM27.091 12.522H12.9091L20.0001 4.93272L27.091 12.522ZM18.595 4.64678L11.7166 12.0085L9.10881 4.66545C9.19704 4.65352 9.28633 4.64686 9.37619 4.64686H18.595V4.64678ZM7.90956 5.2824C7.93791 5.25212 7.9674 5.22305 7.99746 5.19472L10.5996 12.522H1.35273C1.44177 12.2848 1.57616 12.061 1.7585 11.8658L7.90956 5.2824ZM1.69094 14.4967C1.49969 14.2699 1.36907 14.0108 1.29554 13.7399H11.032L18.2956 34.1928L1.69094 14.4967ZM19.9187 35.1042L12.3315 13.7399H27.6686L20.0814 35.1042C20.0543 35.1053 20.0273 35.1064 20.0001 35.1064C19.9729 35.1064 19.9458 35.1053 19.9187 35.1042ZM21.7045 34.1928L28.9681 13.7399H38.7046C38.6311 14.0108 38.5004 14.2699 38.3092 14.4968L21.7045 34.1928Z"/>
    </g>
    <defs>
    <clipPath id="clip0">
    <rect width="40" height="39.7529"/>
    </clipPath>
    </defs>
  </symbol>
  <symbol id="arrow-prev-thin" viewBox="0 0 12 18">
    <path d="M11 1L2 9L11 17" stroke-width="2"/>
  </symbol>
  <symbol id="arrow-next-thin" viewBox="0 0 12 18">
    <path d="M1 17L10 9L1 1" stroke-width="2"/>
  </symbol>
</svg>

